<svg xmlns="http://www.w3.org/2000/svg" width="24.496" height="21.777" viewBox="0 0 24.496 21.777">
  <path id="Icon_awesome-file-export" data-name="Icon awesome-file-export" d="M16.332,5.185a1.018,1.018,0,0,0-.3-.719L11.871.3a1.02,1.02,0,0,0-.723-.3h-.259V5.444h5.444ZM24.286,13.1,20.216,9a.682.682,0,0,0-1.165.481v2.769H16.328v2.722H19.05v2.773a.682.682,0,0,0,1.165.481l4.07-4.1A.724.724,0,0,0,24.286,13.1ZM8.166,14.291V12.93a.683.683,0,0,1,.681-.681h7.486V6.805H10.548A1.024,1.024,0,0,1,9.527,5.784V0H1.021A1.018,1.018,0,0,0,0,1.021V20.756a1.018,1.018,0,0,0,1.021,1.021H15.312a1.018,1.018,0,0,0,1.021-1.021V14.971H8.847A.683.683,0,0,1,8.166,14.291Z" fill="#6c6c6c"/>
</svg>
